<svg width="29" height="28" viewBox="0 0 29 28" fill="none" xmlns="http://www.w3.org/2000/svg"><path d="M27.0024 11.567L15.5558 11.5664C15.0503 11.5664 14.6406 11.9751 14.6406 12.4795V16.1279C14.6406 16.6322 15.0503 17.041 15.5557 17.041H22.0017C21.2959 18.8687 19.9785 20.3994 18.2977 21.3719L21.0462 26.1193C25.4553 23.5751 28.0619 19.111 28.0619 14.1137C28.0619 13.4022 28.0094 12.8936 27.9043 12.3208C27.8243 11.8857 27.4457 11.567 27.0024 11.567Z" fill="#167EE6"/><path d="M14.0321 22.5223C10.8775 22.5223 8.12363 20.8026 6.64457 18.2578L1.88672 20.994C4.30796 25.181 8.84372 28.0006 14.0321 28.0006C16.5773 28.0006 18.9789 27.3168 21.0478 26.1252V26.1187L18.2992 21.3713C17.042 22.0988 15.5871 22.5223 14.0321 22.5223Z" fill="#12B347"/><path d="M21.047 26.125V26.1185L18.2984 21.3711C17.0412 22.0986 15.5864 22.5221 14.0312 22.5221V28.0004C16.5765 28.0004 18.9782 27.3166 21.047 26.125Z" fill="#0F993E"/><path d="M5.49056 13.9994C5.49056 12.4479 5.9149 10.9965 6.64393 9.74209L1.88607 7.00586C0.685237 9.06359 0 11.4533 0 13.9994C0 16.5454 0.685237 18.9351 1.88607 20.9928L6.64393 18.2566C5.9149 17.0022 5.49056 15.5508 5.49056 13.9994Z" fill="#FFD500"/><path d="M14.0321 5.47827C16.0891 5.47827 17.9787 6.20758 19.4545 7.42071C19.8186 7.71996 20.3478 7.69836 20.6814 7.36559L23.2722 4.78051C23.6506 4.40295 23.6237 3.78492 23.2195 3.43503C20.7467 1.29462 17.5293 0 14.0321 0C8.84372 0 4.30796 2.81952 1.88672 7.00651L6.64457 9.74274C8.12363 7.19797 10.8775 5.47827 14.0321 5.47827Z" fill="#FF4B26"/><path d="M19.4537 7.42071C19.8178 7.71996 20.3471 7.69836 20.6806 7.36559L23.2714 4.78051C23.6498 4.40295 23.6228 3.78492 23.2186 3.43503C20.7459 1.29456 17.5285 0 14.0312 0V5.47827C16.0883 5.47827 17.9779 6.20758 19.4537 7.42071Z" fill="#D93F21"/></svg>