<svg viewBox="0 0 222 56" fill="none" xmlns="http://www.w3.org/2000/svg"><path d="M84.3311 40.1003H80.4078C78.8239 40.117 77.2525 39.8194 75.7844 39.2249C74.3162 38.6303 72.9805 37.7506 71.8546 36.6364C70.7287 35.5223 69.8349 34.1961 69.2249 32.7343C68.6149 31.2725 68.3008 29.7043 68.3008 28.1203C68.3008 26.5364 68.6149 24.9681 69.2249 23.5063C69.8349 22.0445 70.7287 20.7182 71.8546 19.6041C72.9805 18.49 74.3162 17.6103 75.7844 17.0157C77.2525 16.4211 78.8239 16.1236 80.4078 16.1403H84.3311V19.1848H80.4078C78.1714 19.3838 76.0904 20.4128 74.5748 22.0693C73.0591 23.7258 72.2185 25.8897 72.2185 28.135C72.2185 30.3802 73.0591 32.5442 74.5748 34.2007C76.0904 35.8572 78.1714 36.8862 80.4078 37.0851H84.3311V40.1003Z" fill="#67686B"/><path d="M111.521 39.86H115.095L108.775 29.4969C110.432 29.193 111.916 28.28 112.935 26.9375C113.953 25.595 114.433 23.92 114.279 22.2419C114.125 20.5638 113.349 19.0041 112.103 17.8692C110.857 16.7344 109.232 16.1066 107.547 16.1094H98.5586V19.1539H107.544C108.526 19.1539 109.469 19.5441 110.163 20.2388C110.858 20.9334 111.248 21.8755 111.248 22.8579C111.248 23.8402 110.858 24.7823 110.163 25.4769C109.469 26.1716 108.526 26.5618 107.544 26.5618H98.5586V39.9693H101.603V29.6169H105.286L111.521 39.86Z" fill="#67686B"/><path d="M172.553 40.1011H161.711V16.3105H164.766V37.046H172.553V40.1011Z" fill="#67686B"/><path d="M134.085 19.1558V16.1006H120.199V40.1045H134.085V37.0454H123.244V29.6228H132.648V26.573H123.244V19.1558H134.085Z" fill="#67686B"/><path d="M146.159 16.3105L136.895 39.8518H140.17L147.388 21.5421L154.589 39.8518H157.865L148.604 16.3105H146.159Z" fill="#67686B"/><path d="M179.743 16.3105H176.688V39.8518H179.743V16.3105Z" fill="#67686B"/><path d="M200.026 16.1006H183.684V19.1558H190.322V39.8512H193.377V19.1558H200.026V16.1006Z" fill="#67686B"/><path d="M217.529 16.3105L212.028 26.3335L206.524 16.3105H203.043L210.5 29.8981V39.8518H213.555V29.8981L221.003 16.3105H217.529Z" fill="#67686B"/><path d="M93.455 35.7275H89.4023V39.7802H93.455V35.7275Z" fill="#67686B"/><path d="M1.71875 27.778C1.71875 32.9776 3.26063 38.0604 6.14937 42.3837C9.03812 46.707 13.144 50.0766 17.9478 52.0664C22.7516 54.0562 28.0376 54.5769 33.1373 53.5625C38.237 52.5481 42.9213 50.0443 46.598 46.3676C50.2747 42.6909 52.7785 38.0065 53.7929 32.9068C54.8073 27.8071 54.2867 22.5212 52.2969 17.7174C50.3071 12.9135 46.9375 8.80765 42.6142 5.9189C38.2909 3.03016 33.208 1.48828 28.0084 1.48828C21.036 1.48828 14.3491 4.25809 9.41883 9.18836C4.48856 14.1186 1.71875 20.8055 1.71875 27.778Z" fill="#66B5B8"/><path d="M28.0093 2.93814C23.1132 2.93814 18.3272 4.38996 14.2563 7.11005C10.1854 9.83014 7.01252 13.6963 5.13889 18.2196C3.26526 22.743 2.775 27.7203 3.73017 32.5223C4.68534 37.3242 7.04299 41.7351 10.505 45.1971C13.967 48.6592 18.3779 51.0168 23.1799 51.972C27.9818 52.9271 32.9592 52.4369 37.4825 50.5633C42.0059 48.6896 45.872 45.5168 48.5921 41.4459C51.3122 37.375 52.764 32.5889 52.764 27.6929C52.764 21.1275 50.156 14.8311 45.5135 10.1886C40.8711 5.54623 34.5746 2.93814 28.0093 2.93814ZM28.0093 55.2881C22.5515 55.2881 17.2162 53.6696 12.6782 50.6374C8.14021 47.6052 4.60325 43.2955 2.51464 38.2531C0.42602 33.2108 -0.120458 27.6623 0.944309 22.3093C2.00908 16.9564 4.63724 12.0394 8.4965 8.18009C12.3558 4.32083 17.2727 1.69267 22.6257 0.627903C27.9786 -0.436865 33.5271 0.109613 38.5695 2.19823C43.6119 4.28685 47.9217 7.8238 50.9539 12.3618C53.9861 16.8998 55.6045 22.2351 55.6045 27.6929C55.6045 35.0116 52.6972 42.0305 47.5221 47.2057C42.3469 52.3808 35.328 55.2881 28.0093 55.2881Z" fill="#67686B"/><path d="M26.2539 39.1214H22.5199C19.5104 39.0889 16.6353 37.8706 14.5187 35.7309C12.402 33.5913 11.2148 30.7031 11.2148 27.6935C11.2148 24.6838 12.402 21.7956 14.5187 19.656C16.6353 17.5164 19.5104 16.2981 22.5199 16.2656H26.2539V19.1448H22.5199C20.2603 19.1448 18.0932 20.0424 16.4953 21.6402C14.8975 23.238 13.9998 25.4052 13.9998 27.6648C13.9998 29.9245 14.8975 32.0916 16.4953 33.6894C18.0932 35.2873 20.2603 36.1849 22.5199 36.1849H26.2539V39.1214Z" fill="#67686B"/><path d="M41.5186 38.9479H44.9245L38.9368 29.0796C40.5135 28.7887 41.9246 27.9192 42.8933 26.6416C43.862 25.3641 44.3185 23.7707 44.173 22.174C44.0276 20.5773 43.2908 19.0926 42.1072 18.0111C40.9236 16.9296 39.3786 16.3293 37.7753 16.3281H29.1992V19.2073H37.7766C38.256 19.1809 38.7357 19.2525 39.1864 19.4178C39.6371 19.5831 40.0494 19.8385 40.398 20.1685C40.7467 20.4985 41.0244 20.8962 41.2142 21.3371C41.404 21.7781 41.5019 22.2531 41.5019 22.7332C41.5019 23.2133 41.404 23.6883 41.2142 24.1293C41.0244 24.5702 40.7467 24.9678 40.398 25.2978C40.0494 25.6278 39.6371 25.8833 39.1864 26.0486C38.7357 26.2138 38.256 26.2855 37.7766 26.2591H29.1992V39.0199H32.0784V29.1849H35.5803L41.5186 38.9479Z" fill="#67686B"/></svg>