<svg width="261" height="141" fill="none" xmlns="http://www.w3.org/2000/svg"><mask id="a" style="mask-type:alpha" maskUnits="userSpaceOnUse" x="0" y="0" width="261" height="141"><path fill="#539D5E" d="M0 0h261v141H0z"/></mask><g mask="url(#a)"><path d="M164.122 87h48.002c3.615 0 6.546 2.878 6.546 6.429v34.286c0 3.55-2.931 6.428-6.546 6.428h-7.746l1.187 10.479c.133 1.176-.731 2.235-1.929 2.365a2.206 2.206 0 0 1-1.699-.537l-13.925-12.307h-23.89c-3.615 0-6.546-2.878-6.546-6.428V93.429c0-3.55 2.931-6.429 6.546-6.429Z" fill="#F2EEF6"/><path d="M95.138-15H70.337c-1.868 0-3.382 1.487-3.382 3.321V6.036c0 1.834 1.514 3.321 3.382 3.321h4.002l-.613 5.414a1.112 1.112 0 0 0 .996 1.222c.32.035.64-.066.879-.277l7.194-6.359h12.343c1.868 0 3.382-1.487 3.382-3.321V-11.68c0-1.834-1.514-3.321-3.382-3.321Z" fill="#E9E1F1"/><g filter="url(#b)"><path d="M201.219 103.981c-.402 3.603-3.374 6.418-7.057 6.672-.305.021-.607.042-.91.061-2.245.15-3.991 1.981-3.991 4.192v8.357c0 2.812-3.276 4.407-5.553 2.704-4.155-3.108-9.683-7.732-13.075-12.526-.802-1.135-2.128-1.797-3.536-1.789a424.009 424.009 0 0 1-31.328-.999c-2.911-.2-5.383-1.997-6.484-4.524a7.275 7.275 0 0 1-.572-2.13 187.267 187.267 0 0 1 0-41.627c.402-3.6 3.376-6.401 7.052-6.655a423.89 423.89 0 0 1 46.666-.644c3.909.16 7.82.374 11.729.644 3.679.254 6.655 3.055 7.057 6.655a187.226 187.226 0 0 1 .002 41.609Z" fill="#78D0B1"/><path d="M132.695 61.99a191.693 191.693 0 0 0 0 42.617c.086.769.286 1.502.586 2.183a7.745 7.745 0 0 0 3.946 3.961c-.486-.031-.973-.064-1.459-.098-2.912-.199-5.384-1.996-6.484-4.524a7.22 7.22 0 0 1-.573-2.131 187.26 187.26 0 0 1 0-41.626c.402-3.6 3.376-6.401 7.052-6.654.718-.049 1.436-.097 2.156-.142-2.8.946-4.888 3.41-5.224 6.414Z" fill="#66B49D"/><path d="M156.393 98.8c.004 2.262 3.027 4.093 5.329 4.093h17.82c1.853 0 3.355-1.475 3.355-3.296 0-.91-.374-1.735-.981-2.33a3.38 3.38 0 0 0-2.374-.966h1.205c1.853 0 3.356-1.474 3.356-3.296 0-.91-.375-1.733-.984-2.33a3.37 3.37 0 0 0-2.372-.965h1.205c1.83 0 3.318-1.44 3.354-3.23.038-1.85-1.546-3.362-3.43-3.362h-1.13c1.853 0 3.356-1.475 3.356-3.296 0-.911-.374-1.734-.984-2.331a3.369 3.369 0 0 0-2.372-.964h-9.439l-.031-.048 3.681-7.7c1.045-2.184.088-4.785-2.135-5.81a4.49 4.49 0 0 0-1.886-.415c-1.671 0-3.272.93-4.029 2.513l-1.574 3.293a10.722 10.722 0 0 1-4.304 4.673 7.043 7.043 0 0 0-2.915 3.208 6.83 6.83 0 0 0-.607 2.947l-1.114 19.613Z" fill="#FFDDCE"/><path d="M174.199 63.956a4.341 4.341 0 0 0-.454-.024c-1.671 0-3.272.93-4.029 2.513l-1.574 3.293a10.722 10.722 0 0 1-4.304 4.673c-1.245.717-5.722 1.83-5.888 10.16-.012.65-.252 1.25-.427 1.85l-.014-7.233a6.829 6.829 0 0 1 .607-2.947 7.037 7.037 0 0 1 2.915-3.208 10.724 10.724 0 0 0 4.304-4.673l1.573-3.293c.758-1.584 2.359-2.513 4.03-2.513a4.49 4.49 0 0 1 3.261 1.402ZM182.898 99.597c0 1.821-1.502 3.296-3.355 3.296h-18.285a6.007 6.007 0 0 1-4.84-2.428h23.125a3.354 3.354 0 0 0 3.12-2.082c.001.001.001.004.004.005 0 0-.002 0 0 0 .149.375.231.783.231 1.21ZM183.866 91.791c.152.376.236.785.236 1.214 0 1.821-1.502 3.296-3.356 3.296h-1.285a1.225 1.225 0 0 1-1.236-1.214c0-.67.553-1.213 1.236-1.213h1.285a3.354 3.354 0 0 0 3.12-2.083ZM185.071 85.2c.152.376.236.785.236 1.213 0 1.822-1.502 3.297-3.355 3.297h-1.286a1.225 1.225 0 0 1-1.236-1.214c0-.67.553-1.214 1.236-1.214h1.286a3.354 3.354 0 0 0 3.119-2.082ZM183.868 78.607c.151.376.236.786.236 1.214 0 1.822-1.502 3.297-3.356 3.297h-1.285a1.225 1.225 0 0 1-1.236-1.214c0-.67.553-1.214 1.236-1.214h1.285a3.355 3.355 0 0 0 3.12-2.083Z" fill="#FFCBBE"/><path d="M147.07 79.188v20.553c0 1.426 1.177 2.581 2.628 2.581h5.182c1.452 0 2.628-1.155 2.628-2.58V79.187c0-1.425-1.176-2.581-2.628-2.581h-5.182c-1.451 0-2.628 1.155-2.628 2.581Z" fill="#F1F4F6"/><path d="M147.07 93.267v6.475c0 1.425 1.178 2.58 2.629 2.58h5.182c1.451 0 2.627-1.155 2.627-2.58v-6.475c0 1.425-1.176 2.582-2.627 2.582h-5.182c-1.451 0-2.629-1.157-2.629-2.582Z" fill="#D0E2E7"/><path d="M89.452 64.376c.386 3.465 3.244 6.172 6.785 6.415l.875.06c2.16.143 3.838 1.904 3.838 4.03v8.036c0 2.704 3.15 4.238 5.34 2.6 3.995-2.989 9.311-7.434 12.572-12.044.772-1.092 2.047-1.728 3.4-1.72 10.042.05 20.083-.268 30.124-.962 2.8-.191 5.177-1.92 6.236-4.35a7.026 7.026 0 0 0 .55-2.048 180.134 180.134 0 0 0 0-40.028c-.387-3.46-3.246-6.155-6.782-6.398a407.71 407.71 0 0 0-44.873-.62c-3.758.153-7.52.36-11.278.62-3.538.243-6.399 2.937-6.786 6.399a180.092 180.092 0 0 0-.001 40.01Z" fill="#F9DA41"/><path d="M93.283 23.998a184.367 184.367 0 0 0 0 40.98 7.18 7.18 0 0 0 .563 2.098 7.445 7.445 0 0 0 3.794 3.81c-.468-.03-.935-.062-1.403-.095-2.8-.192-5.177-1.919-6.235-4.35a6.958 6.958 0 0 1-.55-2.049 179.999 179.999 0 0 1 0-40.027c.386-3.46 3.246-6.155 6.781-6.398.69-.047 1.381-.094 2.073-.136-2.693.91-4.7 3.278-5.023 6.167Z" fill="#EDC932"/><path d="M136.377 43.355c2.112 0 3.83-2.803 3.83-6.25 0-3.446-1.718-6.25-3.83-6.25s-3.83 2.804-3.83 6.25c0 3.447 1.718 6.25 3.83 6.25ZM112.244 43.355c2.112 0 3.83-2.803 3.83-6.25 0-3.446-1.718-6.25-3.83-6.25s-3.83 2.804-3.83 6.25c0 3.447 1.718 6.25 3.83 6.25ZM137.502 47.95c-.877-.362-1.885.04-2.254.9-1.86 4.333-6.153 7.132-10.937 7.132-4.785 0-9.078-2.8-10.937-7.131-.369-.86-1.379-1.263-2.255-.901a1.68 1.68 0 0 0-.917 2.214c2.399 5.588 7.937 9.198 14.109 9.198 6.171 0 11.709-3.61 14.108-9.198a1.678 1.678 0 0 0-.917-2.214Z" fill="#21386B"/></g><path d="M207.142 16h-24.801c-1.868 0-3.382 1.487-3.382 3.321v17.715c0 1.834 1.514 3.321 3.382 3.321h4.002l-.613 5.414a1.112 1.112 0 0 0 .996 1.222c.32.035.639-.066.878-.278l7.195-6.358h12.343c1.868 0 3.382-1.487 3.382-3.321V19.32c0-1.834-1.514-3.321-3.382-3.321ZM238.706 77h-24.801c-1.867 0-3.382 1.487-3.382 3.321v17.715c0 1.834 1.515 3.321 3.382 3.321h4.002l-.613 5.414a1.112 1.112 0 0 0 .997 1.222c.319.035.639-.066.878-.278l7.194-6.358h12.343c1.868 0 3.382-1.487 3.382-3.321V80.32c0-1.834-1.514-3.321-3.382-3.321Z" fill="#E9E1F1"/><path d="M59.828 111H15.025c-3.374 0-6.109 2.686-6.109 6v32c0 3.314 2.735 6 6.11 6h7.229l-1.108 9.78c-.123 1.098.683 2.087 1.8 2.208a2.062 2.062 0 0 0 1.587-.502L37.53 155h22.298c3.374 0 6.109-2.686 6.109-6v-32c0-3.314-2.735-6-6.11-6Z" fill="#F2EEF7"/><path d="M78.519 103h17.6c1.326 0 2.4 1.055 2.4 2.357v12.572c0 1.301-1.074 2.357-2.4 2.357h-2.84l.436 3.842a.79.79 0 0 1-.708.867.808.808 0 0 1-.623-.197l-5.106-4.512h-8.76c-1.325 0-2.4-1.056-2.4-2.357v-12.572c0-1.302 1.075-2.357 2.4-2.357Z" fill="#E9E1F1"/><path d="M68.882 70h-23.2c-1.748 0-3.164 1.391-3.164 3.107V89.68c0 1.716 1.416 3.107 3.163 3.107h3.744l-.573 5.064a1.04 1.04 0 0 0 .932 1.144c.299.032.598-.063.821-.26l6.73-5.948h11.547c1.748 0 3.164-1.391 3.164-3.107V73.107c0-1.716-1.416-3.107-3.164-3.107Z" fill="#F1EDF5"/><path d="M204.816-6h32.801c2.47 0 4.473 1.967 4.473 4.393V21.82c0 2.426-2.003 4.393-4.473 4.393h-5.293l.811 7.16c.09.804-.5 1.528-1.318 1.617a1.508 1.508 0 0 1-1.161-.367l-9.516-8.41h-16.324c-2.471 0-4.473-1.966-4.473-4.393V-1.607c0-2.426 2.002-4.393 4.473-4.393Z" fill="#F2EEF6"/></g><defs><filter id="b" x="71.336" y="4" width="148.041" height="143.667" filterUnits="userSpaceOnUse" color-interpolation-filters="sRGB"><feFlood flood-opacity="0" result="BackgroundImageFix"/><feColorMatrix in="SourceAlpha" values="0 0 0 0 0 0 0 0 0 0 0 0 0 0 0 0 0 0 127 0" result="hardAlpha"/><feOffset dy="4"/><feGaussianBlur stdDeviation="8.5"/><feComposite in2="hardAlpha" operator="out"/><feColorMatrix values="0 0 0 0 1 0 0 0 0 1 0 0 0 0 1 0 0 0 1 0"/><feBlend in2="BackgroundImageFix" result="effect1_dropShadow_785_36657"/><feColorMatrix in="SourceAlpha" values="0 0 0 0 0 0 0 0 0 0 0 0 0 0 0 0 0 0 127 0" result="hardAlpha"/><feOffset dy="4"/><feGaussianBlur stdDeviation="8.5"/><feComposite in2="hardAlpha" operator="out"/><feColorMatrix values="0 0 0 0 1 0 0 0 0 1 0 0 0 0 1 0 0 0 1 0"/><feBlend in2="effect1_dropShadow_785_36657" result="effect2_dropShadow_785_36657"/><feColorMatrix in="SourceAlpha" values="0 0 0 0 0 0 0 0 0 0 0 0 0 0 0 0 0 0 127 0" result="hardAlpha"/><feOffset dy="4"/><feGaussianBlur stdDeviation="8.5"/><feComposite in2="hardAlpha" operator="out"/><feColorMatrix values="0 0 0 0 1 0 0 0 0 1 0 0 0 0 1 0 0 0 1 0"/><feBlend in2="effect2_dropShadow_785_36657" result="effect3_dropShadow_785_36657"/><feBlend in="SourceGraphic" in2="effect3_dropShadow_785_36657" result="shape"/></filter></defs></svg>