<svg viewBox="0 0 25 27" fill="none" xmlns="http://www.w3.org/2000/svg"><path d="M20.299 18.161a4.83 4.83 0 0 0-3.477 1.448l-7.74-4.507a4.163 4.163 0 0 0 0-3.204l7.74-4.507a4.83 4.83 0 0 0 3.477 1.448C22.89 8.839 25 6.856 25 4.419S22.891 0 20.299 0c-2.593 0-4.702 1.982-4.702 4.42 0 .564.115 1.105.321 1.602l-7.74 4.506a4.83 4.83 0 0 0-3.477-1.447C2.11 9.08 0 11.063 0 13.5c0 2.437 2.109 4.42 4.701 4.42a4.829 4.829 0 0 0 3.477-1.448l7.74 4.506a4.168 4.168 0 0 0-.321 1.603c0 2.436 2.11 4.419 4.702 4.419S25 25.017 25 22.58c0-2.436-2.109-4.419-4.701-4.419ZM17.31 4.42c0-1.548 1.34-2.808 2.988-2.808 1.647 0 2.987 1.26 2.987 2.808 0 1.549-1.34 2.808-2.988 2.808-1.647 0-2.987-1.26-2.987-2.808ZM4.701 16.308c-1.647 0-2.987-1.26-2.987-2.808 0-1.548 1.34-2.808 2.987-2.808 1.648 0 2.987 1.26 2.987 2.808 0 1.548-1.34 2.808-2.987 2.808Zm12.61 6.273c0-1.549 1.34-2.808 2.988-2.808 1.647 0 2.987 1.26 2.987 2.808 0 1.548-1.34 2.808-2.988 2.808-1.647 0-2.987-1.26-2.987-2.808Z" fill="#686868"/></svg>