<svg width="15" height="14" fill="none" xmlns="http://www.w3.org/2000/svg"><path d="M11.85 8.812a.758.758 0 0 0-.219.668l.612 3.39a.744.744 0 0 1-.31.743.758.758 0 0 1-.806.055l-3.05-1.59a.78.78 0 0 0-.345-.091h-.186a.56.56 0 0 0-.186.062l-3.052 1.599a.805.805 0 0 1-.489.075.766.766 0 0 1-.613-.875l.613-3.39a.77.77 0 0 0-.22-.673L1.113 6.374a.744.744 0 0 1-.185-.779.773.773 0 0 1 .612-.516l3.424-.497a.766.766 0 0 0 .606-.42L7.077 1.07a.717.717 0 0 1 .138-.186l.062-.048a.462.462 0 0 1 .111-.09L7.463.72 7.58.67h.29a.77.77 0 0 1 .606.414l1.529 3.079c.11.225.324.381.571.42L14 5.078a.78.78 0 0 1 .627.516c.09.277.012.58-.2.779L11.85 8.812Z" fill="#EEC337"/></svg>