<svg width="900" height="600" viewBox="0 0 900 600" fill="none" xmlns="http://www.w3.org/2000/svg"><path d="M0 0H900V600H0V0Z" fill="black"/><path d="M0 0H900V400H0V0Z" fill="white"/><path d="M0 0H900V200H0V0Z" fill="#CE1126"/><path d="M450.807 302.409L519.297 365.99L514.421 250.517C513.705 233.016 498.497 237.031 487.449 243.344C476.258 250.517 463.491 250.517 450.002 245.781C436.517 250.517 423.748 250.517 412.557 243.344C401.511 237.032 386.304 233.016 385.586 250.517L380.708 365.99L450.807 302.409Z" fill="white" stroke="#C09300" stroke-width="1.27039" stroke-linejoin="round"/><path d="M393.465 246.497L388.731 358.82L380.696 365.989L385.575 250.516C387.869 248.937 391.888 246.497 393.465 246.497ZM403.086 254.538L399.068 348.495L391.036 356.715L395.913 248.222C397.492 249.8 402.228 253.673 403.086 254.533V254.538ZM411.836 261.708L408.681 340.072L402.226 346.382L406.244 256.974C407.818 258.552 410.974 260.848 411.836 261.708ZM421.306 265.728L418.15 332.517L411.837 337.637L414.993 263.29C416.572 264.007 419.728 265.728 421.306 265.728ZM430.056 265.728L427.759 321.386L421.304 327.7L423.744 266.446C425.319 266.446 429.337 266.446 430.056 265.728Z" fill="#C09300"/><path d="M506.529 246.497L511.263 358.82L519.298 365.989L514.419 250.516C512.125 248.937 508.106 246.497 506.529 246.497ZM496.908 254.538L500.926 348.495L508.958 356.715L504.081 248.222C502.502 249.8 497.767 253.673 496.908 254.533V254.538ZM488.158 261.708L491.313 340.072L497.768 346.382L493.75 256.974C492.176 258.552 489.02 260.848 488.158 261.708ZM478.688 265.728L481.844 332.517L488.157 337.637L485.001 263.29C483.422 264.007 480.266 265.728 478.688 265.728ZM469.938 265.728L472.235 321.386L478.69 327.7L476.25 266.446C474.675 266.446 470.657 266.446 469.938 265.728Z" fill="#C09300"/><path d="M453.157 315.069L462.77 358.826L459.612 361.981L456.313 359.542L450.861 320.523L453.157 359.542L450 363.558L446.843 359.542L449.139 320.523L443.689 359.542L440.386 361.981L437.232 358.826L446.843 315.069L453.157 315.069Z" fill="#C09300" stroke="#C09300" stroke-width="1.07389"/><path d="M428.477 295.849L409.396 363.556L435.652 367.574L446.84 316.648L428.476 295.849L428.477 295.849Z" fill="white" stroke="#C09300" stroke-width="1.18904" stroke-linejoin="round"/><path d="M422.166 318.95L424.462 324.543L436.867 312.694" stroke="#C09300" stroke-width="1.26993" stroke-linejoin="round"/><path d="M430.756 304.929L433.352 329.276L441.243 318.948M438.087 322.96L442.397 337.835M444.087 332.37L435.369 345.611M438.088 358.828L435.298 345.63L432.862 332.206L427.021 340.115L424.46 330.996L416.285 339.381L420.442 354.632L426.18 345.197L429.336 354.81L435.226 345.647" stroke="#C09300" stroke-width="1.26993" stroke-linejoin="round"/><path d="M414.986 361.981L420.286 354.537L423.739 365.994L428.473 357.962L431.631 367.576" stroke="#C09300" stroke-width="1.26993" stroke-linejoin="round"/><path d="M471.518 295.849L490.598 363.556L464.342 367.574L453.154 316.648L471.518 295.849L471.518 295.849Z" fill="white" stroke="#C09300" stroke-width="1.18904" stroke-linejoin="round"/><path d="M477.828 318.95L475.532 324.543L463.127 312.694" stroke="#C09300" stroke-width="1.26993" stroke-linejoin="round"/><path d="M469.238 304.929L466.642 329.276L458.751 318.948M461.907 322.96L457.597 337.835M455.907 332.37L464.625 345.611M461.906 358.828L464.696 345.63L467.132 332.206L472.973 340.115L475.534 330.996L483.709 339.381L479.552 354.632L473.814 345.197L470.658 354.81L464.768 345.647" stroke="#C09300" stroke-width="1.26993" stroke-linejoin="round"/><path d="M485.008 361.981L479.708 354.537L476.255 365.994L471.521 357.962L468.363 367.576" stroke="#C09300" stroke-width="1.26993" stroke-linejoin="round"/><path d="M449.997 393.822C469.941 393.822 489.022 392.244 500.211 389.088C504.947 388.229 504.947 385.79 504.947 382.632C509.682 381.054 507.242 375.461 510.541 375.461C507.242 376.324 506.526 369.867 502.508 370.73C502.508 365.133 496.913 364.417 492.178 365.992C482.708 369.15 465.922 369.867 449.997 369.867C434.072 369.15 417.429 369.15 407.817 365.992C403.082 364.417 397.489 365.133 397.489 370.73C393.471 369.867 392.754 376.324 389.455 375.462C392.754 375.462 390.315 381.054 395.049 382.632C395.049 385.79 395.049 388.229 399.927 389.088C410.973 392.244 430.056 393.822 449.997 393.822H449.997Z" fill="white" stroke="#C09300" stroke-width="2.37809" stroke-linecap="round" stroke-linejoin="round"/><path d="M422.886 363.551C429.341 364.412 436.515 365.129 442.112 364.412C445.265 364.412 447.561 369.863 441.249 370.725C435.656 371.44 426.904 370.725 422.169 369.863C418.152 369.145 409.4 367.568 403.804 365.987C398.209 363.551 402.228 358.819 405.381 359.535C410.26 361.112 416.574 362.691 422.887 363.551L422.886 363.551ZM477.118 363.551C470.661 364.412 463.489 365.129 458.036 364.412C454.735 364.412 452.44 369.863 458.753 370.725C464.349 371.44 473.101 370.725 477.832 369.863C481.851 369.145 490.601 367.568 496.196 365.987C501.793 363.551 497.777 358.819 494.619 359.535C489.741 361.112 483.429 362.691 477.118 363.551L477.118 363.551Z" fill="white" stroke="#C09300" stroke-width="1.26993" stroke-linecap="round" stroke-linejoin="round"/><path d="M403.086 360.401C398.208 359.54 395.913 365.133 397.493 368.288C398.209 366.71 401.509 366.71 402.228 365.133C403.086 362.696 401.509 362.696 403.086 360.401ZM422.166 375.071C422.166 371.918 425.321 372.306 425.321 369.15C425.321 367.572 424.462 365.132 422.884 365.132C421.305 365.132 419.726 366.71 419.726 368.288C419.008 371.445 422.166 371.919 422.166 375.071ZM444.877 365.991C449.607 365.991 449.139 372.305 446.842 375.461C446.842 373.166 442.826 372.305 442.826 370.729C442.826 368.287 446.452 368.287 444.877 365.991H444.877ZM496.908 360.401C501.786 359.54 504.083 365.133 502.504 368.288C501.786 366.71 498.487 366.71 497.769 365.133C496.908 362.696 498.487 362.696 496.908 360.401ZM477.828 375.071C477.828 371.918 474.675 372.306 474.675 369.15C474.675 367.572 475.534 365.132 477.113 365.132C478.69 365.132 480.269 366.71 480.269 368.288C480.987 371.445 477.828 371.919 477.828 375.071ZM455.117 365.991C450.385 365.991 450.854 372.305 453.15 375.461C453.15 373.166 457.166 372.305 457.166 370.729C457.166 368.287 453.539 368.287 455.117 365.991Z" fill="white" stroke="#C09300" stroke-width="1.26993" stroke-linecap="round" stroke-linejoin="round"/><path d="M404.666 361.981C406.246 361.981 408.684 362.699 409.401 363.558L404.661 361.978L404.666 361.981ZM412.546 364.421C413.408 364.421 416.565 365.137 418.142 365.996L412.542 364.416L412.546 364.421ZM441.247 367.571C439.669 367.571 436.513 367.571 435.654 368.286L441.244 367.566L441.247 367.571ZM432.497 367.571C431.638 366.709 428.48 366.709 426.903 367.571H432.493H432.497ZM495.338 361.981C493.761 361.981 491.464 362.699 490.603 363.558L495.338 361.981ZM487.448 364.421C486.588 364.421 483.431 365.137 481.853 365.996L487.453 364.416L487.448 364.421ZM458.747 367.571C460.327 367.571 463.483 367.571 464.343 368.286L458.743 367.566L458.747 367.571ZM467.497 367.571C468.358 366.709 471.516 366.709 473.093 367.571H467.493H467.497Z" fill="white" stroke="#C09300" stroke-width="0.890908" stroke-linecap="round" stroke-linejoin="round"/><path d="M403.336 374.591C402.802 374.489 402.521 374.067 402.655 373.567C402.819 372.958 403.307 372.609 403.768 372.772C404.061 372.876 404.598 373.417 404.6 373.611C404.603 373.834 404.319 374.364 404.197 374.365C404.145 374.365 404.063 374.411 404.016 374.467C403.916 374.585 403.603 374.642 403.336 374.591ZM458.267 378.511C458.068 378.438 457.752 377.993 457.752 377.788C457.754 377.4 458.327 376.77 458.681 376.766C458.856 376.765 459.336 377.014 459.516 377.201C459.84 377.539 459.77 378.093 459.361 378.409C459.16 378.564 458.561 378.62 458.267 378.511L458.267 378.511ZM458.627 380.991C458.207 380.849 458.053 380.644 458.019 380.178C457.984 379.692 458.031 379.617 458.544 379.337L458.91 379.138L459.256 379.292C459.736 379.506 459.949 379.737 459.966 380.06C459.984 380.407 459.726 380.763 459.326 380.943C458.974 381.1 458.953 381.101 458.627 380.991Z" fill="#C09300"/><path d="M407.746 370.101C407.4 370.09 406.924 370.408 406.652 370.57C406.003 370.722 405.247 371.121 404.621 370.695C404.004 370.504 403.183 370.654 403.089 371.414C403.248 372.065 404.161 372.438 404.714 372.007C405.125 371.47 406.246 371.154 406.371 372.07C405.914 372.762 405.966 373.679 405.59 374.414C405.528 374.871 405.338 375.306 405.09 375.695C404.627 375.741 404.136 375.687 403.746 375.976C403.12 376.01 402.481 376.322 402.121 376.851C401.717 377.429 401.332 378.017 401.214 378.726C401.321 379.451 402.152 379.659 402.777 379.695C403.444 379.879 404.111 380.119 404.777 380.32C405.862 380.563 406.879 380.955 407.965 381.195C409.549 381.673 411.213 381.892 412.808 382.32C412.976 382.376 413.132 382.424 413.308 382.445C413.971 382.583 414.316 381.862 414.371 381.32C414.7 380.161 414.95 378.981 415.277 377.82C415.502 377.354 415.774 376.303 414.871 376.539C414.356 376.847 413.919 377.312 413.277 377.351C412.403 377.402 412.902 378.296 413.246 378.664C413.322 379.251 413.136 379.953 412.746 380.414C412.226 380.744 411.574 380.358 411.027 380.227C410.452 380.236 409.304 379.943 409.84 379.164C410.03 378.587 410.047 377.956 410.277 377.383C410.571 376.768 410.613 376.097 410.746 375.445C410.384 374.668 409.767 375.701 409.277 375.789C408.939 376.023 407.672 376.123 408.339 376.726C408.915 377.163 408.474 377.923 408.371 378.476C408.334 379.247 407.533 379.43 406.902 379.258C406.274 379.227 405.4 378.76 405.933 378.07C406.054 377.495 406.255 376.93 406.371 376.351C406.608 375.654 406.808 374.989 407.058 374.289C407.167 373.669 407.389 373.081 407.683 372.539C407.7 371.853 408.161 371.264 408.152 370.57C408.105 370.231 407.954 370.108 407.746 370.101H407.746ZM404.152 377.351C404.234 377.337 404.292 377.349 404.371 377.382C404.62 377.489 404.628 377.692 404.371 377.914C404.258 378.011 404.131 378.104 404.089 378.101C403.622 378.061 403.484 377.992 403.465 377.82C403.447 377.669 403.495 377.625 403.808 377.476C403.964 377.402 404.07 377.365 404.152 377.351ZM403.116 382.371C402.62 381.905 402.7 381.565 403.433 381.018C403.747 380.784 403.937 380.811 404.296 381.138C404.848 381.642 404.871 381.961 404.383 382.393C404.142 382.606 404.037 382.65 403.756 382.653C403.462 382.656 403.379 382.62 403.116 382.371ZM406.166 383.292C406.052 383.264 405.944 383.214 405.85 383.143C405.756 383.073 405.678 382.984 405.619 382.882C405.561 382.78 405.524 382.668 405.511 382.551C405.498 382.434 405.509 382.316 405.543 382.204C405.672 381.769 405.746 381.726 406.383 381.72C407.098 381.713 407.237 381.833 407.244 382.462C407.248 382.816 407.221 382.898 407.044 383.062C406.837 383.255 406.439 383.359 406.166 383.292ZM495.278 383.371C495.051 383.183 495.006 383.097 495.003 382.857C495 382.446 495.237 382.145 495.749 381.913C496.431 381.604 496.709 381.646 496.966 382.099C497.307 382.7 497.291 382.945 496.882 383.351C496.656 383.574 496.614 383.587 496.097 383.592C495.589 383.595 495.531 383.582 495.278 383.371H495.278ZM410.216 384.521C409.852 384.424 409.663 384.151 409.659 383.715C409.655 383.381 409.679 383.328 409.912 383.145C410.064 383.027 410.302 382.925 410.491 382.899C410.758 382.863 410.855 382.886 411.07 383.037C411.621 383.424 411.738 383.807 411.419 384.178C411.079 384.574 410.757 384.666 410.216 384.521ZM432.137 385.502C432.056 385.401 431.877 385.341 431.859 385.214C431.891 384.66 431.917 384.098 432.095 383.566C432.19 383.043 432.106 382.497 432.289 381.988C432.476 381.061 432.475 380.105 432.691 379.184C432.701 378.709 432.746 378.235 432.883 377.778C433.041 377.057 432.897 376.302 433.109 375.589C433.086 375.321 433.395 374.606 433.666 375.03C434.059 375.606 434.577 376.075 435.087 376.545C435.524 376.797 435.123 377.169 434.82 377.295C434.405 377.458 434.304 377.916 434.333 378.317C434.275 378.731 434.109 379.124 434.092 379.547C434.004 380.169 434.021 380.802 433.94 381.423C433.758 382.032 433.828 382.683 433.767 383.311C433.775 383.709 433.586 384.071 433.612 384.471C433.563 384.877 433.545 385.366 433.205 385.644C432.876 385.81 432.4 385.781 432.136 385.502H432.137ZM461.837 375.701C461.355 376.066 460.924 376.496 460.493 376.92C459.901 377.369 460.98 377.63 461.118 378.014C461.276 378.6 461.266 379.224 461.306 379.826C461.486 380.378 461.564 380.965 461.525 381.545C461.473 382.168 460.661 382.037 460.306 382.389C459.814 382.596 459.618 383.08 459.243 383.42C458.997 383.903 458.931 384.497 458.9 385.045C458.935 385.493 458.597 385.995 458.9 386.389C458.939 386.445 458.985 386.521 459.025 386.577C459.126 386.722 459.367 386.606 459.525 386.639C460.028 386.611 460.553 386.686 461.025 386.483C462.235 386.274 463.456 386.257 464.681 386.202C465.43 386.226 466.151 385.965 466.9 385.983C467.487 386.113 467.751 385.477 467.744 385.014C467.411 384.361 467.699 383.585 467.431 382.92C467.196 382.248 467.289 381.492 467.181 380.795C467.166 380.247 466.47 380.044 466.119 380.451C465.777 380.796 465.226 380.865 464.962 381.295C464.666 381.898 465.59 381.898 465.744 382.358C465.92 382.822 465.862 383.338 465.9 383.826C466.014 384.419 465.371 384.453 464.963 384.514C464.426 384.715 463.672 384.85 463.368 384.202C463.178 383.722 463.204 383.209 463.15 382.702C463.137 381.81 462.922 380.933 462.868 380.045C462.817 378.948 462.628 377.859 462.556 376.764C462.546 376.309 462.485 375.566 461.837 375.702V375.701ZM461.213 383.951L461.525 383.983L461.556 384.358L461.587 384.733L461.181 384.858C461.048 384.897 460.912 384.929 460.775 384.951C460.71 384.913 460.648 384.871 460.587 384.826C460.368 384.668 460.424 384.441 460.712 384.139C460.875 383.969 460.951 383.936 461.212 383.951H461.213ZM431.246 374.671C430.866 374.806 430.384 375.364 429.996 375.359C429.116 375.421 429.239 376.278 429.871 376.578C429.955 376.837 429.876 377.165 429.903 377.453C430.025 378.242 429.527 378.878 429.621 379.671C429.577 380.542 429.314 381.389 429.278 382.265C429.031 383.169 429.028 384.097 428.871 385.015C428.767 385.839 428.172 385.548 427.652 385.328C427.648 384.971 427.625 384.622 427.621 384.265C427.838 383.448 427.18 383.21 426.527 383.109C425.841 383.174 425.505 382.586 425.652 381.984C425.947 381.633 426.689 381.731 427.152 381.672C428.134 381.875 428.094 380.56 427.59 380.109C427.245 379.473 426.392 379.2 426.152 378.547C426.248 377.68 425.673 376.814 424.965 376.39C423.876 376.314 423.055 377.253 422.653 378.171C422.2 378.302 421.748 378.438 421.309 378.609C420.6 378.786 419.589 380.016 420.559 380.484C421.103 380.634 422.759 381.012 422.027 381.765C421.615 382.472 420.826 382.485 420.121 382.297C419.397 382.297 418.592 381.945 418.621 381.109C418.473 380.359 418.498 379.551 418.152 378.859C418.004 378.02 417.052 378.216 416.996 378.984C416.263 379.518 416.36 380.382 416.871 381.015C417.19 381.744 416.874 382.593 416.559 383.265C416.368 384.14 415.403 384.17 414.715 384.453C414.377 384.584 413.086 384.375 413.559 385.109C414.312 385.375 415.211 385.614 415.996 385.421C416.819 385.32 417.534 384.757 417.934 384.047C418.486 383.486 419.436 383.78 420.153 383.765C420.925 383.763 421.715 384.308 422.465 383.953C422.682 383.388 423.687 382.457 423.996 383.421C423.944 384.284 424.706 384.747 425.496 384.64C426.36 384.591 426.041 385.251 426.028 385.765C426.085 386.7 426.687 387.19 427.465 387.578C427.73 387.649 428.01 387.625 428.278 387.578C429.026 387.343 429.831 387.009 430.059 386.172C430.362 385.491 430.37 384.721 430.59 384.016C430.768 382.885 430.996 381.755 431.028 380.609C431.304 379.571 431.224 378.473 431.434 377.422C431.566 376.64 431.665 375.858 431.746 375.078C431.655 374.661 431.475 374.59 431.246 374.671ZM424.465 378.827C424.617 378.846 424.7 379.032 424.715 379.359C424.731 379.723 424.921 380.019 425.153 380.078C425.335 380.123 425.319 380.316 425.121 380.453C425.006 380.532 424.8 380.58 424.434 380.578C423.856 380.575 423.497 380.425 423.184 380.109L422.996 379.921L423.278 379.734C423.475 379.578 423.663 379.411 423.84 379.234C424.125 378.943 424.314 378.809 424.465 378.827ZM490.498 370.951C489.939 370.979 489.384 371.063 488.842 371.201C487.802 371.136 487.279 372.228 488.279 372.764C488.881 374.298 489.82 372.447 490.779 372.576C492.217 372.856 492.338 374.408 492.561 375.576C492.642 376.733 492.975 377.858 493.311 378.951C494.273 380.021 492.59 380.692 491.873 379.858C491.262 379.193 489.953 378.378 489.217 379.295C488.313 379.678 488.276 380.885 487.529 381.233C486.32 381.601 486.168 380.114 485.529 379.483C484.942 378.658 483.819 378.586 482.904 378.295C482.475 377.426 482.699 375.949 481.81 375.357C481.065 375.662 479.697 377.06 480.842 377.701C481.959 378.662 480.354 379.102 479.842 379.764C479.11 380.578 478.993 381.7 478.873 382.733C477.613 383.428 477.368 381.945 477.216 381.014C477.119 379.902 476.181 380.229 475.529 380.639C474.576 381.025 474.101 381.929 473.435 382.639C473.355 383.287 473.472 383.995 473.466 384.67C473.683 385.481 474.669 385.101 475.279 385.045C476.258 384.636 476.658 385.673 475.873 386.264C475.341 386.94 473.653 386.587 473.81 387.67C474.354 387.734 474.921 387.713 475.466 387.67C476.557 387.372 477.728 386.603 477.842 385.389C477.985 384.331 479.509 384.523 480.341 384.295C481.382 383.995 482.636 383.918 482.873 385.233C483.582 385.978 485.121 386.817 485.904 385.795C486.699 385.31 487.08 384.457 487.029 383.545C486.867 382.761 488.298 382.732 488.654 383.17C489.175 384.028 490.805 383.775 491.592 383.295C492.428 382.678 492.609 381.59 493.811 381.576C495.593 381.043 497.445 380.735 499.186 380.076C500.596 379.769 498.976 378.878 498.623 378.357C497.549 377.826 496.615 379.999 495.404 378.92C494.469 378.204 494.532 376.843 494.185 375.795C493.948 374.437 494.008 372.872 493.029 371.795C492.357 371.08 491.443 370.908 490.498 370.951H490.498ZM483.685 380.42C483.811 380.417 483.953 380.479 484.185 380.608C484.624 380.85 484.936 381.251 484.935 381.576C484.935 381.789 484.881 381.803 484.561 381.951C484.363 382.042 484.139 382.14 484.06 382.139C483.879 382.137 483.436 381.782 483.436 381.639C483.435 381.579 483.377 381.352 483.31 381.17C483.193 380.85 483.211 380.854 483.373 380.639C483.476 380.501 483.56 380.423 483.685 380.42ZM490.217 380.764C490.589 380.74 490.81 380.856 490.967 381.139C491.149 381.468 491.025 381.72 490.561 381.92C490.357 382.008 490.154 382.079 490.123 382.076C490.093 382.073 489.925 381.974 489.748 381.858C489.478 381.68 489.439 381.594 489.436 381.389C489.433 381.074 489.785 380.792 490.217 380.764H490.217ZM481.279 380.857C481.388 380.841 481.487 380.898 481.623 381.014C481.803 381.168 481.86 381.293 481.904 381.608C481.935 381.826 481.93 382.109 481.904 382.233C481.855 382.459 481.851 382.448 481.342 382.451C480.701 382.457 480.642 382.388 480.654 381.795C480.662 381.418 480.666 381.317 480.873 381.108C481.033 380.945 481.17 380.874 481.279 380.857ZM475.779 382.295C475.978 382.342 476.167 382.493 476.216 382.733C476.282 383.05 476.224 383.195 475.966 383.326C475.744 383.44 475.232 383.477 475.091 383.389C475.046 383.36 474.951 383.286 474.904 383.201C474.836 383.08 474.848 383.022 474.935 382.951C474.996 382.902 475.061 382.832 475.06 382.795C475.06 382.759 475.128 382.632 475.216 382.514C475.362 382.32 475.58 382.248 475.779 382.295ZM485.029 383.483C485.207 383.482 485.358 383.543 485.467 383.639C485.652 383.801 485.646 384.039 485.435 384.202C485.3 384.306 484.564 384.296 484.31 384.202C484.198 384.159 484.155 384.103 484.154 383.983C484.152 383.842 484.192 383.755 484.435 383.639C484.64 383.541 484.851 383.484 485.029 383.483H485.029ZM467.858 388.302C467.762 388.239 467.62 388.185 467.763 388.08C467.935 387.778 468.281 387.673 468.587 387.56C469.135 387.323 469.608 386.92 469.961 386.442C470.011 386.109 470.385 385.928 470.383 385.58C470.386 385.105 470.414 384.618 470.298 384.154C470.17 383.728 469.847 383.402 469.472 383.18C469.215 382.978 468.798 382.923 468.703 382.566C468.651 382.223 468.957 381.962 469.064 381.657C469.287 381.235 469.475 380.793 469.715 380.382C469.974 380.094 470.373 380.366 470.507 380.644C470.697 380.922 470.864 381.22 470.958 381.541C471.261 381.873 471.529 382.262 471.637 382.703C471.786 383.014 472.02 383.306 472.007 383.669C472.007 384.086 472.242 384.457 472.227 384.876C472.24 385.436 472.24 386.021 472.035 386.55C471.895 386.843 471.615 387.02 471.429 387.282C471.11 387.578 470.758 387.861 470.349 388.019C470.06 388.111 469.892 388.444 469.53 388.363C469.015 388.372 468.493 388.442 467.982 388.359C468.015 388.413 467.826 388.268 467.858 388.302V388.302ZM461.007 388.752C460.765 388.502 460.712 388.396 460.709 388.151C460.706 387.904 460.754 387.806 460.992 387.565C461.43 387.123 461.644 387.112 462.401 387.495C463.124 387.861 463.368 387.894 463.433 387.635C463.496 387.385 463.912 387.156 464.307 387.154C464.557 387.152 464.699 387.202 464.899 387.358C465.151 387.554 465.163 387.584 465.169 388.037C465.173 388.5 465.167 388.518 464.879 388.773C464.601 389.017 464.557 389.032 464.213 388.998C463.776 388.954 463.514 388.754 463.442 388.409C463.391 388.16 463.303 388.1 463.237 388.27C463.216 388.324 463.109 388.392 462.998 388.419C462.795 388.471 462.449 388.688 462.204 388.919C462.111 389.007 461.949 389.048 461.686 389.051C461.33 389.054 461.28 389.033 461.007 388.752H461.007ZM441.187 379.851C440.522 379.858 439.806 380.418 439.718 381.07C439.87 381.823 440.495 382.56 440.093 383.351C440.371 384.364 439.331 384.749 438.624 384.164C438.197 383.193 437.981 382.128 437.343 381.258C436.539 381.03 436.188 382.315 435.624 382.758C435.904 383.513 436.72 384.19 436.811 385.133C437.007 386.048 436.45 387.063 435.655 387.539C434.969 388.194 434.03 387.96 433.187 388.102C432.162 388.7 433.938 388.919 434.405 388.945C435.453 389.052 436.541 388.914 437.311 388.133C438.081 387.766 438.021 386.436 438.937 386.289C440.525 386.218 442.099 386.533 443.687 386.57C444.536 386.774 445.85 386.469 446.437 387.102C446.439 388.209 447.378 388.892 448.281 389.32C448.779 389.459 449.305 388.841 449.812 388.726C450.777 388.419 450.484 387.225 451.062 386.758C452.712 386.668 454.378 386.687 456.031 386.664C456.345 386.672 456.438 386.224 456.656 386.039C456.62 385.4 456.596 384.766 456.5 384.133C456.181 383.326 456.551 382.288 455.968 381.601C455.138 381.375 454.432 382.135 453.593 382.195C452.667 382.608 451.887 383.463 451.843 384.508C451.295 385.404 450.416 384.348 450.718 383.602C450.684 383.276 450.789 382.897 450.687 382.602C450.18 381.993 449.292 382.192 448.593 382.102C447.575 382.142 446.58 381.922 445.562 381.945C444.669 381.878 443.74 382.023 442.874 381.789C441.843 381.76 441.985 380.751 441.812 380.039C441.629 379.903 441.408 379.849 441.187 379.851ZM443.187 383.539C443.53 383.546 443.854 383.591 444.187 383.633C444.618 383.704 445.077 383.485 445.499 383.633C446.476 383.799 447.453 383.76 448.437 383.851C448.697 383.847 448.883 384.036 449.062 384.195C449.064 384.879 449.063 385.574 449.062 386.258C449.032 386.515 449.138 386.856 448.906 387.039C448.831 387.09 448.747 387.146 448.656 387.164C448.385 387.094 448.099 386.916 447.968 386.664C447.927 386.306 447.986 385.96 447.999 385.602C447.992 385.509 448.04 385.364 447.999 385.289C447.787 385.138 447.545 385.04 447.281 385.039C446.431 385.01 445.599 384.947 444.749 384.914C444.042 384.869 443.316 384.975 442.624 384.789C442.356 384.691 442.007 384.725 441.843 384.445C441.609 384.173 441.947 383.848 442.187 383.727C442.505 383.582 442.844 383.532 443.187 383.539L443.187 383.539ZM454.468 383.789C454.627 383.787 454.677 383.839 454.749 384.133C454.795 384.32 454.849 384.55 454.874 384.633C454.911 384.751 454.853 384.789 454.687 384.851C454.193 385.038 453.701 385.019 453.531 384.789C453.453 384.685 453.544 384.354 453.687 384.226C453.976 383.968 454.297 383.789 454.468 383.789Z" fill="#C09300"/><path d="M462.307 253.098C462.974 253.138 461.405 249.53 461.405 249.53C463.17 251.334 469.835 251.765 469.835 251.765C465.835 249.999 461.837 236.668 462.307 226.043C462.739 215.379 460.779 211.182 459.21 209.614C457.21 207.614 450.78 205.85 446.546 205.614C444.154 205.497 444.546 207.418 444.546 207.418C440.116 206.281 435.685 205.85 433.685 207.183C431.802 208.438 431.41 214.712 432.783 213.614C436.115 210.947 439.018 213.379 441.017 216.28C442.781 218.829 442.664 226.043 440.115 234.472C437.448 243.333 430.155 252.195 430.155 252.195C434.115 252.195 439.684 248.666 439.684 248.666L438.351 254.195C442.546 252.195 445.879 249.097 445.879 249.097L449.878 253.293C451.211 251.529 453.878 249.097 453.878 249.097C453.878 249.097 457.21 252.627 462.307 253.098Z" fill="white" stroke="#C09300" stroke-width="1.21803"/><path d="M446.117 227.577C446.117 227.577 443.882 244.005 439.687 248.671M449.647 227.147C449.647 227.147 448.784 243.77 445.883 249.103M452.777 227.817C452.777 227.817 452.777 246.009 453.875 249.107M456.737 228.717C456.737 228.717 457.639 244.008 461.403 249.537" stroke="#C09300" stroke-width="1.27003"/><path d="M442.077 219.617C441.881 218.167 441.528 217.029 441.018 216.284C439.017 213.383 436.117 210.951 432.784 213.618C432.784 213.618 433.921 210.088 436.352 209.971C438.234 209.853 442.508 211.382 446.273 217.813C446.273 217.813 443.489 217.186 442.823 217.774C441.567 218.872 442.077 219.617 442.077 219.617Z" fill="#C09300" stroke="#C09300" stroke-width="0.35401"/><path d="M432.436 209.266C432.71 208.364 433.142 207.541 433.691 207.188C435.691 205.855 440.122 206.286 444.552 207.423C444.552 207.423 444.16 205.502 446.552 205.62C450.786 205.855 457.216 207.62 459.215 209.619C459.685 210.129 460.235 210.874 460.705 212.011H460.627C459.647 210.638 456.863 210.717 456.196 210.795C455.137 210.913 454.471 210.873 453.059 211.226C452.393 211.383 451.373 211.579 450.824 212.011C450.394 212.364 450.04 213.658 449.374 213.658C448.315 213.658 448.394 213.384 448.119 213.07C447.766 212.639 447.57 212.011 447.217 212.05C446.12 212.247 444.355 211.383 442.121 209.619C439.886 207.854 439.022 207.423 436.121 207.619C433.259 207.854 432.357 209.462 432.357 209.462L432.436 209.266Z" fill="#C09300" stroke="#C09300" stroke-width="0.35401"/><path d="M448.821 211.855C449.47 211.855 449.997 211.328 449.997 210.678C449.997 210.029 449.47 209.502 448.821 209.502C448.171 209.502 447.645 210.029 447.645 210.678C447.645 211.328 448.171 211.855 448.821 211.855Z" fill="white"/><path d="M449.977 327.24C482.62 302.133 479.821 265.355 479.821 265.355C478.96 265.527 478.142 265.613 477.28 265.613C470.433 265.613 454.102 261.696 450.291 256.72C446.21 261.224 429.521 265.613 422.716 265.613C421.855 265.613 420.994 265.527 420.176 265.355C420.176 265.355 417.333 302.132 449.977 327.24L449.977 327.24Z" fill="white" stroke="#C09300" stroke-width="1.15004"/><path d="M477.218 268.048C476.936 268.065 476.653 268.074 476.37 268.074C470.165 268.074 455.751 264.89 450.195 260.117C444.375 264.526 429.723 268.074 423.618 268.074C423.331 268.074 423.048 268.039 422.768 267.988C422.754 269.379 422.826 270.82 422.912 272.132C423.236 277.032 424.095 281.951 425.4 286.684C429.508 301.579 437.916 314.238 449.973 323.84C462.039 314.23 470.458 301.559 474.575 286.653C475.882 281.921 476.744 277.003 477.07 272.103C477.147 270.731 477.223 269.051 477.218 268.048Z" stroke="#C09300" stroke-width="0.916029"/><mask id="mask0_17_130" style="mask-type:luminance" maskUnits="userSpaceOnUse" x="423" y="260" width="54" height="64"><path d="M476.931 268.25C476.653 268.268 476.373 268.277 476.094 268.276C469.954 268.276 455.695 265.127 450.198 260.404C444.44 264.768 429.942 268.276 423.903 268.276C423.62 268.273 423.339 268.244 423.061 268.19C423.047 269.566 423.121 270.994 423.207 272.292C423.525 277.138 424.374 282.007 425.668 286.689C429.733 301.422 438.049 313.949 449.978 323.447C461.918 313.942 470.245 301.407 474.321 286.659C475.627 281.955 476.454 277.132 476.789 272.262C476.864 270.905 476.939 269.244 476.931 268.25Z" fill="white"/></mask><g mask="url(#mask0_17_130)">    <path fill-rule="evenodd" clip-rule="evenodd" d="M422.609 259.769H440.869V324.079H422.609V259.769Z" fill="#C09300"/>    <path fill-rule="evenodd" clip-rule="evenodd" d="M440.869 259.769H459.128V324.079H440.869V259.769Z" fill="white"/>   <path fill-rule="evenodd" clip-rule="evenodd" d="M459.128 259.769H477.388V324.079H459.128V259.769Z" fill="#C09300"/></g></svg>