<svg viewBox="0 0 28 26" fill="none" xmlns="http://www.w3.org/2000/svg"><path d="M20.8284 15.1567L20.8284 15.1567L20.8199 15.1649C20.2352 15.7316 19.9679 16.5492 20.1006 17.3499L20.1018 17.3571L20.1031 17.3642L21.2976 23.9747C21.2976 23.9749 21.2976 23.9751 21.2977 23.9753C21.3285 24.1484 21.2557 24.3246 21.1089 24.426L21.0978 24.4336L21.0869 24.4416C20.9404 24.5487 20.7424 24.5635 20.5775 24.4751L20.5775 24.475L20.5673 24.4697L14.6192 21.3674C14.2727 21.1838 13.8927 21.0876 13.5102 21.0767L13.4959 21.0763H13.4816H13.1175H13.0434L12.9701 21.0872C12.7363 21.122 12.5025 21.1967 12.2837 21.315L6.34727 24.4253C6.24495 24.4753 6.13151 24.4936 6.02035 24.4786C5.76764 24.4236 5.59921 24.1809 5.63788 23.9232L6.83185 17.3228L6.83328 17.3149L6.83458 17.3069C6.96653 16.5041 6.70041 15.6874 6.12075 15.1167L6.12077 15.1166L6.11515 15.1112L1.26326 10.4084C1.26319 10.4084 1.26312 10.4083 1.26306 10.4083C1.1355 10.2844 1.09273 10.1009 1.15002 9.93608L1.15005 9.93609L1.1527 9.92827C1.21339 9.7489 1.36674 9.61914 1.55117 9.58848L8.20417 8.62333C9.04347 8.52883 9.77778 8.0151 10.1553 7.25998L10.1554 7.26L10.1597 7.25115L13.0954 1.23239C13.1105 1.20455 13.1266 1.18126 13.1426 1.16224L13.2073 1.11185L13.2765 1.05805L13.2986 1.03363L13.3007 1.03285L13.319 1.02615L13.337 1.01874L13.3825 1H13.685C13.8384 1.02752 13.9694 1.12327 14.0413 1.25923L17.0164 7.25227C17.0169 7.25329 17.0174 7.25432 17.0179 7.25534C17.3783 7.98945 18.0757 8.49658 18.8785 8.61957L18.8785 8.6196L18.8863 8.62074L25.5647 9.58958L25.5669 9.58989C25.7569 9.61703 25.917 9.74687 25.9833 9.92701C26.0341 10.0938 25.9864 10.2757 25.8572 10.3969L25.854 10.3999L20.8284 15.1567Z" stroke="#EEC337" stroke-width="2" /></svg>