<svg viewBox="0 0 28 26" fill="none" xmlns="http://www.w3.org/2000/svg"><path d="M21.0472 15.1567L21.0471 15.1567L21.0387 15.1649C20.4539 15.7316 20.1867 16.5492 20.3194 17.3499L20.3206 17.3571L20.3219 17.3642L21.5163 23.9747C21.5163 23.9749 21.5164 23.9751 21.5164 23.9753C21.5473 24.1484 21.4745 24.3246 21.3276 24.426L21.3165 24.4336L21.3057 24.4416C21.1591 24.5487 20.9611 24.5635 20.7962 24.4751L20.7962 24.475L20.7861 24.4697L14.838 21.3674C14.4915 21.1838 14.1115 21.0876 13.7289 21.0767L13.7146 21.0763H13.7004H13.3362H13.2621L13.1889 21.0872C12.9551 21.122 12.7213 21.1967 12.5025 21.315L6.56595 24.4253C6.46364 24.4753 6.35022 24.4936 6.23909 24.4786C5.98638 24.4236 5.81796 24.1809 5.85663 23.9232L7.0506 17.3228L7.05203 17.3149L7.05333 17.3069C7.18528 16.5041 6.91916 15.6874 6.3395 15.1167L6.33952 15.1166L6.3339 15.1112L1.48201 10.4084C1.48194 10.4084 1.48187 10.4083 1.48181 10.4083C1.35425 10.2844 1.31148 10.1009 1.36877 9.93608L1.3688 9.93609L1.37145 9.92827C1.43214 9.74892 1.58546 9.61916 1.76987 9.58849L8.42295 8.62332C9.26223 8.52882 9.99654 8.0151 10.3741 7.25998L10.3741 7.26L10.3785 7.25115L13.3141 1.23239C13.3293 1.20455 13.3454 1.18126 13.3613 1.16224L13.4261 1.11185L13.4953 1.05805L13.5173 1.03363L13.5195 1.03285L13.5377 1.02615L13.5557 1.01874L13.6012 1H13.9037C14.0572 1.02753 14.1882 1.12329 14.26 1.25926L17.2351 7.25227C17.2356 7.25329 17.2361 7.25432 17.2366 7.25534C17.5971 7.98945 18.2944 8.49658 19.0972 8.61957L19.0972 8.6196L19.1051 8.62074L25.7835 9.58958L25.7856 9.58989C25.9756 9.61703 26.1357 9.74686 26.202 9.927C26.2529 10.0938 26.2051 10.2757 26.0759 10.3969L26.0727 10.3999L21.0472 15.1567Z" fill="#EEC337" stroke="#EEC337" stroke-width="2" /></svg>